<?xml version="1.0" standalone="no"?>
<!DOCTYPE svg PUBLIC "-//W3C//DTD SVG 20010904//EN"
 "http://www.w3.org/TR/2001/REC-SVG-20010904/DTD/svg10.dtd">
<svg version="1.0" xmlns="http://www.w3.org/2000/svg"
 width="260.000000pt" height="260.000000pt" viewBox="0 0 260.000000 260.000000"
 preserveAspectRatio="xMidYMid meet">
<metadata>
Created by potrace 1.14, written by Peter Selinger 2001-2017
</metadata>
<g transform="translate(0.000000,260.000000) scale(0.100000,-0.100000)"
fill="#000000" stroke="none">
<path d="M1211 2455 c-30 -9 -69 -24 -87 -35 -46 -29 -103 -95 -128 -149 -20
-44 -21 -60 -21 -371 l0 -325 36 -65 c129 -235 464 -223 578 19 l26 56 0 320
0 320 -28 57 c-69 140 -230 214 -376 173z m194 -152 c22 -16 50 -48 63 -73 21
-43 22 -53 22 -325 0 -249 -2 -284 -19 -320 -64 -141 -253 -156 -342 -27 -24
35 -24 37 -27 333 -3 279 -2 301 17 336 56 109 187 144 286 76z"/>
<path d="M2071 2455 c-30 -9 -69 -24 -87 -35 -46 -29 -103 -95 -128 -149 -20
-44 -21 -60 -21 -371 l0 -325 36 -65 c129 -235 464 -223 578 19 l26 56 0 320
0 320 -28 57 c-69 140 -230 214 -376 173z m194 -152 c22 -16 50 -48 63 -73 21
-43 22 -53 22 -325 0 -251 -2 -284 -19 -320 -35 -76 -95 -115 -176 -115 -57 0
-92 14 -134 53 -59 57 -61 67 -61 382 0 261 2 289 19 323 56 108 188 143 286
75z"/>
<path d="M100 2380 l0 -60 130 0 130 0 0 -415 0 -415 -130 0 -130 0 0 -65 0
-65 325 0 325 0 0 65 0 65 -130 0 -130 0 0 475 0 475 -195 0 -195 0 0 -60z"/>
<path d="M100 749 l0 -540 203 3 c187 3 206 5 254 27 66 29 143 111 169 176
17 45 19 78 19 345 l0 295 -28 57 c-33 66 -89 121 -161 154 -48 23 -61 24
-253 24 l-203 0 0 -541z m417 393 c24 -13 55 -41 70 -64 l28 -41 3 -261 c4
-281 0 -314 -45 -367 -46 -54 -92 -69 -225 -69 l-118 0 0 416 0 416 123 -4
c102 -3 129 -7 164 -26z"/>
<path d="M970 750 l0 -540 325 0 325 0 0 65 0 65 -260 0 -260 0 0 175 0 175
260 0 260 0 0 65 0 65 -260 0 -260 0 0 175 0 175 260 0 260 0 0 60 0 60 -325
0 -325 0 0 -540z"/>
<path d="M1794 1268 c3 -13 63 -256 133 -541 l128 -518 100 3 99 3 133 530
c72 292 132 533 132 538 1 4 -28 7 -64 7 l-64 0 -10 -37 c-5 -21 -58 -234
-117 -473 -75 -303 -109 -429 -115 -415 -4 11 -58 224 -119 473 l-112 452 -65
0 c-63 0 -65 -1 -59 -22z"/>
</g>
</svg>
