<?xml version="1.0" standalone="no"?>
<!DOCTYPE svg PUBLIC "-//W3C//DTD SVG 20010904//EN"
 "http://www.w3.org/TR/2001/REC-SVG-20010904/DTD/svg10.dtd">
<svg version="1.0" xmlns="http://www.w3.org/2000/svg"
 width="1000.000000pt" height="1000.000000pt" viewBox="0 0 1000.000000 1000.000000"
 preserveAspectRatio="xMidYMid meet">
<metadata>
Created by potrace 1.14, written by Peter Selinger 2001-2017
</metadata>
<g transform="translate(0.000000,1000.000000) scale(0.100000,-0.100000)"
fill="#000000" stroke="none">
<path d="M2873 8074 c38 -129 41 -238 9 -300 -42 -82 -138 -141 -263 -163 -36
-6 -164 -11 -283 -11 l-218 0 6 -22 c21 -75 76 -305 76 -319 0 -28 -15 -26
295 -49 238 -18 560 -51 566 -58 13 -14 44 -221 59 -402 31 -366 -18 -792
-145 -1254 -20 -71 -34 -130 -33 -131 2 -1 68 -7 148 -14 80 -7 212 -21 293
-33 82 -11 153 -16 157 -12 12 13 115 336 145 453 32 128 70 319 86 441 18
127 18 535 1 670 -43 340 -166 760 -321 1093 l-40 87 -43 1 c-24 0 -52 2 -63
4 -11 2 -87 8 -170 14 -82 6 -176 14 -209 17 -53 6 -58 5 -53 -12z"/>
<path d="M5154 7949 c-136 -17 -233 -61 -313 -140 -141 -142 -184 -354 -206
-1024 -3 -93 -8 -208 -11 -255 -9 -154 -14 -234 -19 -285 -3 -27 -7 -75 -9
-105 -3 -30 -11 -111 -18 -180 -7 -69 -12 -228 -12 -355 0 -251 12 -322 71
-445 41 -86 168 -205 273 -257 265 -129 535 -149 746 -53 94 43 178 106 272
204 231 245 392 614 459 1056 24 159 24 493 0 648 -110 705 -482 1136 -1032
1191 -118 12 -113 12 -201 0z m441 -690 c142 -67 244 -256 281 -524 3 -27 8
-59 10 -70 11 -57 3 -401 -11 -505 -65 -466 -243 -860 -429 -949 -131 -64
-294 -14 -359 109 -29 55 -29 56 -24 195 3 89 18 221 40 360 49 302 64 434 82
690 34 491 43 552 93 634 17 28 44 53 72 69 39 21 55 23 120 19 51 -3 91 -12
125 -28z"/>
<path d="M7455 7876 c-218 -50 -376 -174 -485 -378 -82 -154 -159 -425 -240
-843 -54 -276 -154 -776 -219 -1092 -123 -601 -109 -829 65 -993 106 -101 258
-149 489 -157 332 -11 586 81 809 296 259 250 441 627 555 1146 134 614 110
1204 -65 1583 -96 210 -278 369 -489 427 -83 23 -339 30 -420 11z m290 -725
c84 -39 142 -133 172 -278 19 -96 21 -407 4 -563 -51 -441 -164 -868 -308
-1155 -61 -122 -94 -169 -162 -233 -97 -90 -243 -131 -352 -99 -112 33 -152
96 -151 235 1 48 4 105 7 127 16 101 49 264 109 531 35 159 92 426 126 592
109 539 150 668 242 768 59 64 125 94 208 94 42 0 79 -7 105 -19z"/>
<path d="M2098 5263 c-27 -3 -38 -9 -38 -21 0 -20 -89 -404 -200 -862 -150
-619 -222 -965 -283 -1360 -39 -250 -45 -290 -41 -290 2 0 72 11 156 25 249
40 573 72 763 76 189 3 305 26 433 85 177 81 329 225 484 461 186 280 359 666
439 978 32 121 34 140 33 285 0 133 -4 163 -22 214 -32 88 -63 134 -129 197
-173 165 -407 209 -1133 214 -234 1 -442 0 -462 -2z m921 -374 c193 -19 302
-77 345 -181 19 -44 21 -166 5 -254 -17 -97 -67 -261 -120 -394 -140 -355
-311 -595 -489 -685 -74 -38 -147 -53 -275 -60 -134 -6 -227 -13 -327 -21
l-66 -6 29 139 c38 179 137 573 193 766 45 154 202 681 211 706 4 11 40 12
203 7 108 -4 239 -11 291 -17z"/>
<path d="M4442 4943 c-16 -32 -74 -155 -227 -488 -208 -451 -347 -886 -414
-1295 -15 -88 -41 -327 -41 -371 l0 -35 93 -13 c131 -19 415 -66 602 -102 283
-53 890 -171 947 -183 16 -4 17 3 12 67 -3 40 -6 139 -7 221 l-2 149 -335 77
c-184 43 -423 98 -530 123 -107 25 -221 51 -252 58 -51 11 -58 15 -58 36 0 32
53 278 84 393 37 133 45 152 65 145 9 -3 41 -11 71 -19 30 -8 163 -45 295 -81
132 -37 314 -87 405 -111 91 -25 172 -47 181 -50 13 -4 20 7 29 48 7 29 30
105 51 168 21 63 35 118 31 121 -4 4 -43 17 -87 29 -73 19 -857 251 -862 255
-4 2 192 444 202 453 2 2 117 -33 257 -77 389 -123 768 -234 774 -228 2 1 27
56 57 122 30 66 63 139 75 162 l20 43 -41 11 c-200 52 -441 124 -827 246 -220
69 -531 163 -541 163 -5 0 -17 -17 -27 -37z"/>
<path d="M6116 4438 c-14 -133 -25 -430 -20 -583 11 -435 87 -806 244 -1200
53 -131 150 -340 171 -368 11 -14 53 -22 211 -42 108 -13 232 -27 275 -31 l78
-6 29 101 c57 200 179 477 336 755 104 187 192 330 459 746 308 480 379 594
375 599 -2 2 -74 -4 -161 -13 -87 -9 -222 -20 -301 -25 -79 -4 -148 -13 -153
-18 -6 -6 -47 -69 -92 -141 -45 -72 -159 -254 -253 -404 -261 -415 -383 -632
-490 -871 -34 -76 -65 -141 -67 -144 -3 -3 -17 33 -32 79 -58 184 -114 463
-135 678 -20 210 -18 610 4 816 l6 51 -93 13 c-50 6 -157 25 -236 41 -79 16
-145 29 -146 29 -2 0 -6 -28 -9 -62z"/>
</g>
</svg>
